<svg height="229" viewBox="0 0 174 229" width="174" xmlns="http://www.w3.org/2000/svg"><path d="m0 0h174v229h-174z" fill="#ffffbf"/><path d="m131 77-89 118" stroke="#66c2a5" stroke-width="2"/><path d="m42 77v118" stroke="#66c2a5" stroke-width="2"/><path d="m61 170a14 14 90 0 1 14 14v11h-66v-11a14 14 90 0 1 14-14" fill="#abdda4"/><path d="m75 195v11a14 14 90 0 1 -14 14h-38a14 14 90 0 1 -14-14v-11h57" fill="#e6f598"/><rect fill="none" height="50" rx="14" stroke="#66c2a5" stroke-width="2" width="66" x="9" y="170"/><path d="m9 195h66" stroke="#66c2a5"/><text font-family="Verdana" font-size="12" x="16" y="187.75">ROLE_id</text><text fill="#d53e4f" font-family="Verdana" font-size="12" x="70" y="119.76">0,N</text><text fill="#d53e4f" font-family="Verdana" font-size="12" x="47" y="128">0,N</text><path d="m19 43h46v25h-46z" fill="#fdae61"/><path d="m19 68h46v43h-46z" fill="#fee08b"/><path d="m19 43h46v68h-46z" fill="none" stroke="#f46d43" stroke-width="2"/><path d="m19 68h46" stroke="#f46d43"/><text font-family="Verdana" font-size="12" x="26" y="60.75">ROLE</text><text font-family="Verdana" font-size="12" x="24" y="85.8">id</text><path d="m24 88h12" stroke="#000"/><text font-family="Verdana" font-size="12" x="24" y="102.8">name</text><path d="m97 9h68v25h-68z" fill="#fdae61"/><path d="m97 34h68v111h-68z" fill="#fee08b"/><path d="m97 9h68v136h-68z" fill="none" stroke="#f46d43" stroke-width="2"/><path d="m97 34h68" stroke="#f46d43"/><text font-family="Verdana" font-size="12" x="114" y="26.75">USER</text><text font-family="Verdana" font-size="12" x="102" y="51.8">id</text><path d="m102 54h12" stroke="#000"/><g font-family="Verdana" font-size="12"><text x="102" y="68.8">firstname</text><text x="102" y="85.8">lastname</text><text x="102" y="102.8">email</text><text x="102" y="119.8">password</text><text x="102" y="136.8">id_role</text></g></svg>